<?xml version="1.0" encoding="utf-8"?>
<!-- Generator: Adobe Illustrator 21.1.0, SVG Export Plug-In . SVG Version: 6.00 Build 0)  -->
<svg version="1.1" id="Layer_1" xmlns="http://www.w3.org/2000/svg" xmlns:xlink="http://www.w3.org/1999/xlink" x="0px" y="0px"
	 viewBox="0 0 161.2 48.2" style="enable-background:new 0 0 161.2 48.2;" xml:space="preserve">
<style type="text/css">
	.st0{fill:#BCBCBB;}
	.st1{fill:#FFFFFF;}
</style>
<path class="st0" d="M149.3,48.2l-138.7,0c-0.4,0-0.7,0-1.1,0c-0.7,0-1.6-0.1-2.5-0.2c-0.9-0.2-1.7-0.4-2.4-0.8
	c-0.8-0.4-1.5-0.9-2.1-1.5c-0.6-0.6-1.1-1.3-1.5-2c-0.4-0.7-0.6-1.5-0.8-2.4C0.1,40.3,0,39.4,0,38.8c0-0.2,0-0.5,0-0.7l0-1.6l0-26.2
	c0-0.2,0-0.5,0-0.7C0,8.8,0.1,7.9,0.2,7C0.4,6.1,0.7,5.3,1,4.6c0.4-0.8,0.9-1.5,1.5-2.1C3.2,1.9,3.9,1.4,4.6,1
	C5.4,0.6,6.2,0.4,7,0.2C7.9,0.1,8.8,0,9.5,0l2.4,0l138.7,0l1.1,0c0.7,0,1.6,0.1,2.5,0.2c0.9,0.2,1.7,0.4,2.4,0.8
	c0.8,0.4,1.5,0.9,2.1,1.5c0.6,0.6,1.1,1.3,1.5,2.1c0.4,0.8,0.6,1.5,0.8,2.4c0.2,0.8,0.2,1.7,0.2,2.4c0,0.4,0,0.7,0,1.1
	c0,0.4,0,0.9,0,1.3v24.6c0,0.4,0,0.9,0,1.3c0,0.4,0,0.7,0,1.1c0,0.8-0.1,1.6-0.2,2.5c-0.1,0.9-0.4,1.6-0.8,2.4
	c-0.4,0.8-0.9,1.5-1.5,2.1c-0.6,0.6-1.3,1.1-2.1,1.5c-0.7,0.4-1.5,0.6-2.4,0.8c-0.9,0.2-1.7,0.2-2.5,0.2c-0.4,0-0.7,0-1.1,0
	L149.3,48.2z M11.9,1.2l-2.4,0c-0.6,0-1.5,0.1-2.3,0.2C6.5,1.5,5.8,1.8,5.2,2.1C4.5,2.4,3.9,2.9,3.4,3.4c-0.5,0.5-1,1.1-1.3,1.8
	C1.8,5.8,1.6,6.4,1.4,7.2C1.3,8,1.2,8.8,1.2,9.5c0,0.2,0,0.5,0,0.7l0,1.6l0,26.2c0,0.2,0,0.5,0,0.7c0,0.6,0.1,1.5,0.2,2.3
	c0.1,0.8,0.4,1.4,0.7,2.1c0.3,0.7,0.8,1.2,1.3,1.7c0.5,0.5,1.1,1,1.8,1.3c0.6,0.3,1.3,0.5,2.1,0.7C8,46.9,8.9,47,9.5,47
	c0.4,0,0.7,0,1.1,0l1.3,0l138.7,0c0.4,0,0.7,0,1.1,0c0.7,0,1.5-0.1,2.3-0.2c0.8-0.1,1.5-0.4,2.1-0.7c0.7-0.3,1.2-0.8,1.8-1.3
	c0.5-0.5,0.9-1.1,1.3-1.8c0.3-0.6,0.5-1.3,0.7-2.1c0.1-0.7,0.2-1.4,0.2-2.3c0-0.3,0-0.7,0-1.1c0-0.4,0-0.9,0-1.3V11.8
	c0-0.4,0-0.8,0-1.3v0c0-0.4,0-0.7,0-1.1c0-0.8-0.1-1.5-0.2-2.2c-0.1-0.8-0.3-1.4-0.7-2.1c-0.3-0.7-0.8-1.2-1.3-1.7
	c-0.5-0.5-1.1-0.9-1.8-1.3c-0.7-0.3-1.3-0.6-2.1-0.7c-0.8-0.1-1.7-0.2-2.3-0.2l-2.4,0H11.9z"/>
<g id="XMLID_2_">
	<path id="XMLID_8_" class="st1" d="M39.5,24.1c0-3.3,2.7-4.9,2.8-4.9c-1.5-2.2-3.9-2.5-4.7-2.6c-2-0.2-3.9,1.2-4.9,1.2
		c-1,0-2.6-1.2-4.3-1.1c-2.2,0-4.2,1.3-5.3,3.2c-2.3,4-0.6,9.8,1.6,13c1.1,1.6,2.4,3.3,4.1,3.3c1.6-0.1,2.3-1,4.2-1c2,0,2.5,1,4.3,1
		c1.8,0,2.9-1.6,3.9-3.2c1.3-1.8,1.8-3.6,1.8-3.7C42.9,29.3,39.5,28,39.5,24.1z"/>
	<path id="XMLID_3_" class="st1" d="M36.2,14.5c0.9-1.1,1.5-2.6,1.3-4.1c-1.3,0.1-2.9,0.9-3.8,2c-0.8,1-1.5,2.5-1.4,4
		C33.8,16.4,35.3,15.6,36.2,14.5z"/>
</g>
<path class="st1" d="M60.3,32.2h-5.6l-1.3,4h-2.4l5.3-14.7h2.5L64,36.2h-2.4L60.3,32.2z M55.2,30.4h4.5l-2.2-6.5h-0.1L55.2,30.4z"/>
<path class="st1" d="M75.5,30.8c0,3.3-1.8,5.5-4.5,5.5c-1.5,0-2.7-0.7-3.4-1.9h-0.1v5.3h-2.2V25.4h2.1v1.8h0
	c0.6-1.2,1.9-1.9,3.4-1.9C73.7,25.3,75.5,27.5,75.5,30.8z M73.2,30.8c0-2.2-1.1-3.6-2.8-3.6c-1.7,0-2.8,1.5-2.8,3.6
	c0,2.2,1.1,3.6,2.8,3.6C72.1,34.4,73.2,33,73.2,30.8z"/>
<path class="st1" d="M87.3,30.8c0,3.3-1.8,5.5-4.5,5.5c-1.5,0-2.7-0.7-3.4-1.9h-0.1v5.3h-2.2V25.4h2.1v1.8h0
	c0.6-1.2,1.9-1.9,3.4-1.9C85.5,25.3,87.3,27.5,87.3,30.8z M85.1,30.8c0-2.2-1.1-3.6-2.8-3.6c-1.7,0-2.8,1.5-2.8,3.6
	c0,2.2,1.1,3.6,2.8,3.6C83.9,34.4,85.1,33,85.1,30.8z"/>
<path class="st1" d="M95.1,32.1c0.2,1.5,1.6,2.4,3.5,2.4c1.9,0,3.2-1,3.2-2.3c0-1.1-0.8-1.8-2.7-2.3l-1.9-0.5c-2.7-0.7-4-1.9-4-4
	c0-2.5,2.2-4.3,5.4-4.3c3.1,0,5.2,1.7,5.3,4.3h-2.2c-0.1-1.5-1.3-2.4-3.1-2.4s-3,0.9-3,2.2c0,1,0.8,1.7,2.7,2.1l1.6,0.4
	c3,0.7,4.3,1.9,4.3,4.1c0,2.8-2.2,4.5-5.7,4.5c-3.3,0-5.5-1.7-5.6-4.3H95.1z"/>
<path class="st1" d="M108.9,22.9v2.5h2v1.7h-2v5.9c0,0.9,0.4,1.3,1.3,1.3c0.2,0,0.6,0,0.7-0.1v1.7c-0.2,0.1-0.7,0.1-1.2,0.1
	c-2.2,0-3-0.8-3-2.9v-6.2h-1.6v-1.7h1.6v-2.5H108.9z"/>
<path class="st1" d="M112.2,30.8c0-3.4,2-5.5,5.1-5.5c3.1,0,5.1,2.1,5.1,5.5c0,3.4-2,5.5-5.1,5.5C114.1,36.3,112.2,34.2,112.2,30.8z
	 M120.1,30.8c0-2.3-1.1-3.7-2.8-3.7c-1.8,0-2.8,1.4-2.8,3.7c0,2.3,1.1,3.7,2.8,3.7C119.1,34.5,120.1,33.1,120.1,30.8z"/>
<path class="st1" d="M124.2,25.4h2.1v1.8h0.1c0.3-1.2,1.3-1.9,2.6-1.9c0.3,0,0.6,0,0.8,0.1v2.1c-0.2-0.1-0.6-0.1-1-0.1
	c-1.4,0-2.3,1-2.3,2.5v6.4h-2.2V25.4z"/>
<path class="st1" d="M139.8,33c-0.3,1.9-2.2,3.3-4.6,3.3c-3.1,0-5.1-2.1-5.1-5.5c0-3.4,1.9-5.6,5-5.6c3,0,4.8,2,4.8,5.3v0.8h-7.6
	v0.1c0,1.8,1.2,3,2.9,3c1.2,0,2.2-0.6,2.5-1.5H139.8z M132.4,29.8h5.4c-0.1-1.6-1.1-2.7-2.6-2.7C133.6,27.1,132.5,28.2,132.4,29.8z"
	/>
<path class="st1" d="M54.9,10.4c2.1,0,3.3,1.3,3.3,3.5c0,2.3-1.2,3.6-3.3,3.6h-2.6v-7.1H54.9z M53.5,16.4h1.3c1.5,0,2.3-0.9,2.3-2.5
	c0-1.6-0.9-2.5-2.3-2.5h-1.3V16.4z"/>
<path class="st1" d="M59.5,14.8c0-1.7,1-2.8,2.5-2.8c1.6,0,2.5,1,2.5,2.8c0,1.7-1,2.8-2.5,2.8C60.5,17.5,59.5,16.5,59.5,14.8z
	 M63.5,14.8c0-1.2-0.5-1.8-1.4-1.8c-0.9,0-1.4,0.7-1.4,1.8c0,1.2,0.5,1.8,1.4,1.8C63,16.6,63.5,15.9,63.5,14.8z"/>
<path class="st1" d="M71.3,17.4h-1.1l-1.1-3.9H69l-1.1,3.9h-1.1l-1.5-5.3h1.1l1,4.1h0.1l1.1-4.1h1l1.1,4.1h0.1l1-4.1h1.1L71.3,17.4z
	"/>
<path class="st1" d="M74,12.1h1v0.8h0.1c0.3-0.6,0.8-1,1.6-1c1.2,0,1.8,0.7,1.8,2v3.5h-1.1v-3.2c0-0.9-0.4-1.3-1.2-1.3
	S75,13.5,75,14.3v3.1H74V12.1z"/>
<path class="st1" d="M80.2,10h1.1v7.4h-1.1V10z"/>
<path class="st1" d="M82.7,14.8c0-1.7,1-2.8,2.5-2.8c1.6,0,2.5,1,2.5,2.8c0,1.7-1,2.8-2.5,2.8C83.7,17.5,82.7,16.5,82.7,14.8z
	 M86.6,14.8c0-1.2-0.5-1.8-1.4-1.8c-0.9,0-1.4,0.7-1.4,1.8c0,1.2,0.5,1.8,1.4,1.8C86.1,16.6,86.6,15.9,86.6,14.8z"/>
<path class="st1" d="M88.8,15.9c0-1,0.7-1.5,2-1.6l1.4-0.1v-0.5c0-0.6-0.4-0.9-1.1-0.9c-0.6,0-1,0.2-1.1,0.6h-1
	c0.1-0.9,1-1.5,2.2-1.5c1.3,0,2.1,0.7,2.1,1.8v3.6h-1v-0.8h-0.1c-0.3,0.5-0.9,0.8-1.6,0.8C89.6,17.5,88.8,16.9,88.8,15.9z
	 M92.3,15.5V15L91,15.1c-0.7,0-1.1,0.3-1.1,0.8c0,0.5,0.4,0.8,1,0.8C91.7,16.6,92.3,16.1,92.3,15.5z"/>
<path class="st1" d="M94.7,14.8c0-1.7,0.9-2.8,2.2-2.8c0.7,0,1.3,0.3,1.6,0.9h0.1V10h1.1v7.4h-1v-0.8h-0.1c-0.3,0.6-0.9,0.9-1.7,0.9
	C95.6,17.5,94.7,16.5,94.7,14.8z M95.8,14.8c0,1.1,0.5,1.8,1.4,1.8c0.9,0,1.4-0.7,1.4-1.8c0-1.1-0.6-1.8-1.4-1.8
	C96.3,13,95.8,13.6,95.8,14.8z"/>
<path class="st1" d="M104.1,14.8c0-1.7,1-2.8,2.5-2.8c1.6,0,2.5,1,2.5,2.8c0,1.7-1,2.8-2.5,2.8C105,17.5,104.1,16.5,104.1,14.8z
	 M108,14.8c0-1.2-0.5-1.8-1.4-1.8c-0.9,0-1.4,0.7-1.4,1.8c0,1.2,0.5,1.8,1.4,1.8C107.5,16.6,108,15.9,108,14.8z"/>
<path class="st1" d="M110.5,12.1h1v0.8h0.1c0.3-0.6,0.8-1,1.6-1c1.2,0,1.8,0.7,1.8,2v3.5H114v-3.2c0-0.9-0.4-1.3-1.2-1.3
	s-1.3,0.5-1.3,1.4v3.1h-1.1V12.1z"/>
<path class="st1" d="M121,10.8v1.4h1.2V13H121v2.7c0,0.6,0.2,0.8,0.8,0.8c0.2,0,0.3,0,0.4,0v0.9c-0.2,0-0.4,0.1-0.6,0.1
	c-1.2,0-1.6-0.4-1.6-1.4v-3h-0.8v-0.9h0.8v-1.4H121z"/>
<path class="st1" d="M123.6,10h1V13h0.1c0.3-0.6,0.8-1,1.6-1c1.1,0,1.8,0.7,1.8,2v3.4h-1.1v-3.2c0-0.9-0.4-1.3-1.1-1.3
	c-0.9,0-1.3,0.5-1.3,1.4v3.1h-1.1V10z"/>
<path class="st1" d="M134.3,16c-0.2,1-1.1,1.5-2.3,1.5c-1.5,0-2.5-1-2.5-2.8c0-1.7,1-2.8,2.5-2.8c1.5,0,2.4,1,2.4,2.7v0.4h-3.8v0.1
	c0,0.9,0.6,1.5,1.4,1.5c0.6,0,1.1-0.2,1.3-0.6H134.3z M130.6,14.3h2.7c0-0.8-0.5-1.4-1.3-1.4C131.2,12.9,130.7,13.4,130.6,14.3z"/>
</svg>
